<svg width="440" height="431" viewBox="0 0 440 431" fill="none" xmlns="http://www.w3.org/2000/svg">
<path fill-rule="evenodd" clip-rule="evenodd" d="M277.55 252.267C316.19 200.75 309.621 127.333 260.724 83.6098C209.083 37.4333 129.786 41.863 83.6099 93.5038C37.4334 145.145 41.8632 224.441 93.504 270.618C142.593 314.512 216.672 312.679 263.537 268.033L341.338 337.602C345.68 341.484 352.347 341.112 356.23 336.77C360.113 332.427 359.74 325.76 355.398 321.877L277.55 252.267ZM248.451 97.9014C292.183 137.006 295.934 204.158 256.83 247.89C217.726 291.622 150.573 295.373 106.842 256.269C63.1097 217.164 59.3584 150.012 98.4628 106.28C137.567 62.5483 204.719 58.797 248.451 97.9014Z" fill="white"/>
<path d="M162.543 119.516H192.821L184.587 199.194H168.12L162.543 119.516Z" fill="white"/>
<rect x="168.12" y="216.191" width="16.4668" height="15.9356" fill="white"/>
</svg>
