<svg width="16" height="16" viewBox="0 0 16 16" fill="none" xmlns="http://www.w3.org/2000/svg">
<g id="add_FILL0_wght500_GRAD0_opsz24 1">
<path id="Vector" d="M7.24173 8.75778H3.95623C3.74341 8.75778 3.56382 8.68459 3.41744 8.53822C3.27106 8.39184 3.19788 8.21225 3.19788 7.99945C3.19788 7.78665 3.27106 7.60706 3.41744 7.46068C3.56382 7.3143 3.74341 7.24112 3.95623 7.24112H7.24173V3.95562C7.24173 3.7428 7.31492 3.56321 7.46129 3.41683C7.60767 3.27045 7.78726 3.19727 8.00006 3.19727C8.21286 3.19727 8.39245 3.27045 8.53883 3.41683C8.6852 3.56321 8.75839 3.7428 8.75839 3.95562V7.24112H12.0439C12.2567 7.24112 12.4363 7.3143 12.5827 7.46068C12.7291 7.60706 12.8022 7.78665 12.8022 7.99945C12.8022 8.21225 12.7291 8.39184 12.5827 8.53822C12.4363 8.68459 12.2567 8.75778 12.0439 8.75778H8.75839V12.0433C8.75839 12.2561 8.6852 12.4357 8.53883 12.5821C8.39245 12.7284 8.21286 12.8016 8.00006 12.8016C7.78726 12.8016 7.60767 12.7284 7.46129 12.5821C7.31492 12.4357 7.24173 12.2561 7.24173 12.0433V8.75778Z" fill="#5534DA"/>
</g>
</svg>
